<svg width="20" height="20" viewBox="0 0 20 20" fill="none" xmlns="http://www.w3.org/2000/svg">
<path d="M6.66663 7.5L9.99996 10M9.99996 10L13.3333 7.5M9.99996 10L9.99996 1.66667" stroke="#9A9696" stroke-width="2"/>
<path d="M13.3333 4.16602H13.5C15.3856 4.16602 16.3284 4.16602 16.9142 4.7518C17.5 5.33759 17.5 6.2804 17.5 8.16602V13.4994C17.5 15.385 17.5 16.3278 16.9142 16.9136C16.3284 17.4993 15.3856 17.4993 13.5 17.4993H6.5C4.61438 17.4993 3.67157 17.4993 3.08579 16.9136C2.5 16.3278 2.5 15.385 2.5 13.4993V8.16601C2.5 6.2804 2.5 5.33759 3.08579 4.7518C3.67157 4.16602 4.61438 4.16602 6.5 4.16602H6.66667" stroke="#9A9696" stroke-width="2"/>
</svg>
