<svg width="50" height="50" viewBox="0 0 50 50" fill="none" xmlns="http://www.w3.org/2000/svg">
<path d="M37.9629 9.73633L38.5185 8.90486L38.5184 8.90482L37.9629 9.73633ZM40.2627 12.0361L41.0942 11.4806L41.0942 11.4806L40.2627 12.0361ZM41.667 22.916H42.667H41.667ZM40.2627 33.7959L41.0942 34.3515L41.0942 34.3515L40.2627 33.7959ZM37.9629 36.0947L38.5184 36.9262L38.5185 36.9262L37.9629 36.0947ZM29.167 37.4951L29.1626 36.4951C28.6121 36.4975 28.167 36.9445 28.167 37.4951H29.167ZM29.167 37.499L30.0614 37.9462C30.1308 37.8074 30.167 37.6543 30.167 37.499H29.167ZM25.8945 44.0439L26.7888 44.4914L26.789 44.4912L25.8945 44.0439ZM24.1055 44.0439L23.211 44.4912L23.2112 44.4914L24.1055 44.0439ZM20.833 37.499H19.833C19.833 37.6543 19.8692 37.8074 19.9386 37.9462L20.833 37.499ZM20.833 37.4951H21.833C21.833 36.9445 21.3879 36.4975 20.8374 36.4951L20.833 37.4951ZM12.0371 36.0947L11.4815 36.9262L11.4816 36.9262L12.0371 36.0947ZM9.7373 33.7959L8.90584 34.3515L8.90584 34.3515L9.7373 33.7959ZM8.33301 22.916H7.33301H8.33301ZM9.7373 12.0361L8.90584 11.4806L8.9058 11.4806L9.7373 12.0361ZM12.0371 9.73633L11.4816 8.90482L11.4815 8.90486L12.0371 9.73633ZM27.083 8.33203V9.33203C30.0296 9.33203 32.1645 9.33327 33.8279 9.50247C35.4747 9.66998 36.5482 9.99381 37.4074 10.5678L37.9629 9.73633L38.5184 8.90482C37.2758 8.07466 35.8351 7.69633 34.0303 7.51274C32.2422 7.33085 29.988 7.33203 27.083 7.33203V8.33203ZM37.9629 9.73633L37.4073 10.5678C38.208 11.1028 38.8962 11.791 39.4312 12.5917L40.2627 12.0361L41.0942 11.4806C40.4132 10.4615 39.5376 9.5858 38.5185 8.90486L37.9629 9.73633ZM40.2627 12.0361L39.4312 12.5916C40.0052 13.4509 40.329 14.5244 40.4965 16.1711C40.6658 17.8346 40.667 19.9694 40.667 22.916H41.667H42.667C42.667 20.011 42.6682 17.7568 42.4863 15.9687C42.3027 14.1639 41.9244 12.7232 41.0942 11.4806L40.2627 12.0361ZM41.667 22.916H40.667C40.667 25.8627 40.6658 27.9975 40.4966 29.661C40.3291 31.3077 40.0053 32.3811 39.4312 33.2403L40.2627 33.7959L41.0942 34.3515C41.9245 33.1088 42.3028 31.6682 42.4864 29.8633C42.6682 28.0752 42.667 25.8211 42.667 22.916H41.667ZM40.2627 33.7959L39.4312 33.2403C38.8964 34.0407 38.2084 34.728 37.4073 35.2633L37.9629 36.0947L38.5185 36.9262C39.5372 36.2455 40.413 35.3709 41.0942 34.3515L40.2627 33.7959ZM37.9629 36.0947L37.4074 35.2632C36.6567 35.7647 35.7421 36.0752 34.4252 36.257C33.0923 36.441 31.4149 36.4853 29.1626 36.4951L29.167 37.4951L29.1714 38.4951C31.4139 38.4853 33.2165 38.4428 34.6987 38.2382C36.197 38.0314 37.433 37.6514 38.5184 36.9262L37.9629 36.0947ZM29.167 37.4951H28.167V37.499H29.167H30.167V37.4951H29.167ZM29.167 37.499L28.2726 37.0518L25.0001 43.5967L25.8945 44.0439L26.789 44.4912L30.0614 37.9462L29.167 37.499ZM25.8945 44.0439L25.0002 43.5964L24.9998 43.5964L24.1055 44.0439L23.2112 44.4914C23.9484 45.9647 26.0516 45.9648 26.7888 44.4914L25.8945 44.0439ZM24.1055 44.0439L24.9999 43.5967L21.7274 37.0518L20.833 37.499L19.9386 37.9462L23.211 44.4912L24.1055 44.0439ZM20.833 37.499H21.833V37.4951H20.833H19.833V37.499H20.833ZM20.833 37.4951L20.8374 36.4951C18.5851 36.4853 16.9077 36.441 15.5748 36.257C14.2579 36.0752 13.3433 35.7647 12.5926 35.2632L12.0371 36.0947L11.4816 36.9262C12.567 37.6514 13.803 38.0314 15.3013 38.2382C16.7835 38.4428 18.5861 38.4853 20.8286 38.4951L20.833 37.4951ZM12.0371 36.0947L12.5927 35.2633C11.7916 34.728 11.1036 34.0407 10.5688 33.2403L9.7373 33.7959L8.90584 34.3515C9.58701 35.3709 10.4628 36.2455 11.4815 36.9262L12.0371 36.0947ZM9.7373 33.7959L10.5688 33.2403C9.99468 32.3811 9.67086 31.3077 9.50338 29.661C9.33419 27.9975 9.33301 25.8627 9.33301 22.916H8.33301H7.33301C7.33301 25.8211 7.33177 28.0752 7.51364 29.8633C7.69721 31.6682 8.07553 33.1088 8.90584 34.3515L9.7373 33.7959ZM8.33301 22.916H9.33301C9.33301 19.9694 9.33424 17.8346 9.50345 16.1711C9.67096 14.5244 9.99478 13.4509 10.5688 12.5916L9.7373 12.0361L8.9058 11.4806C8.07563 12.7232 7.69731 14.1639 7.51372 15.9687C7.33183 17.7568 7.33301 20.011 7.33301 22.916H8.33301ZM9.7373 12.0361L10.5688 12.5917C11.1038 11.791 11.792 11.1028 12.5927 10.5678L12.0371 9.73633L11.4815 8.90486C10.4624 9.5858 9.58678 10.4615 8.90584 11.4806L9.7373 12.0361ZM12.0371 9.73633L12.5926 10.5678C13.4518 9.99381 14.5253 9.66999 16.1721 9.50247C17.8355 9.33327 19.9704 9.33203 22.917 9.33203V8.33203V7.33203C20.012 7.33203 17.7578 7.33085 15.9697 7.51274C14.1649 7.69633 12.7242 8.07466 11.4816 8.90482L12.0371 9.73633ZM22.917 8.33203V9.33203H27.083V8.33203V7.33203H22.917V8.33203Z" fill="#646164"/>
<ellipse cx="33.3333" cy="22.9173" rx="2.08333" ry="2.08333" fill="#646164"/>
<ellipse cx="25" cy="22.9173" rx="2.08333" ry="2.08333" fill="#646164"/>
<ellipse cx="16.6667" cy="22.9173" rx="2.08333" ry="2.08333" fill="#646164"/>
</svg>
