<svg width="50" height="50" viewBox="0 0 50 50" fill="none" xmlns="http://www.w3.org/2000/svg">
<path d="M40.2623 12.0376C41.6667 14.1394 41.6667 17.0654 41.6667 22.9173C41.6667 28.7692 41.6667 31.6952 40.2623 33.7971C39.6543 34.707 38.873 35.4882 37.9631 36.0962C36.127 37.3231 33.6619 37.4782 29.1667 37.4978V37.5007L26.8634 42.1072C26.0957 43.6427 23.9044 43.6427 23.1366 42.1072L20.8334 37.5007V37.4978C16.3382 37.4782 13.8731 37.3231 12.037 36.0962C11.127 35.4882 10.3458 34.707 9.73779 33.7971C8.33337 31.6952 8.33337 28.7692 8.33337 22.9173C8.33337 17.0654 8.33337 14.1394 9.73779 12.0376C10.3458 11.1276 11.127 10.3464 12.037 9.7384C14.1388 8.33398 17.0648 8.33398 22.9167 8.33398H27.0834C32.9353 8.33398 35.8613 8.33398 37.9631 9.7384C38.873 10.3464 39.6543 11.1276 40.2623 12.0376Z" stroke="#646164" stroke-width="2" stroke-linecap="round" stroke-linejoin="round"/>
<path d="M18.75 18.75L31.25 18.75" stroke="#646164" stroke-width="2" stroke-linecap="round" stroke-linejoin="round"/>
<path d="M18.75 27.084H25" stroke="#646164" stroke-width="2" stroke-linecap="round" stroke-linejoin="round"/>
</svg>
