<svg width="50" height="50" viewBox="0 0 50 50" fill="none" xmlns="http://www.w3.org/2000/svg">
<circle cx="25" cy="16.666" r="5.25" stroke="#646164" stroke-width="2" stroke-linecap="round"/>
<path d="M28.6472 13.5202C29.0633 12.7994 29.6839 12.2181 30.4304 11.85C31.1769 11.4819 32.0158 11.3434 32.841 11.452C33.6662 11.5607 34.4407 11.9116 35.0665 12.4604C35.6922 13.0091 36.1412 13.7312 36.3566 14.5352C36.5721 15.3391 36.5442 16.1889 36.2767 16.9771C36.0092 17.7652 35.5139 18.4564 34.8536 18.963C34.1932 19.4697 33.3975 19.7692 32.5669 19.8237C31.7364 19.8781 30.9084 19.685 30.1875 19.2689" stroke="#646164" stroke-width="2"/>
<path d="M21.3528 13.5202C20.9367 12.7994 20.3161 12.2181 19.5696 11.85C18.8231 11.4819 17.9842 11.3434 17.159 11.452C16.3338 11.5607 15.5593 11.9116 14.9335 12.4604C14.3078 13.0091 13.8588 13.7312 13.6434 14.5352C13.4279 15.3391 13.4558 16.1889 13.7233 16.9771C13.9908 17.7652 14.4861 18.4564 15.1464 18.963C15.8068 19.4697 16.6025 19.7692 17.4331 19.8237C18.2636 19.8781 19.0916 19.685 19.8125 19.2689" stroke="#646164" stroke-width="2"/>
<path d="M25 26.041C34.4771 26.041 36.1157 34.5921 36.3991 37.5491C36.4517 38.0989 36.0106 38.541 35.4583 38.541H14.5416C13.9893 38.541 13.5482 38.0989 13.6009 37.5491C13.8842 34.5921 15.5228 26.041 25 26.041Z" stroke="#646164" stroke-width="2" stroke-linecap="round"/>
<path d="M32.2911 23.957V22.957H32.2911L32.2911 23.957ZM40.4572 33.2871L41.4401 33.103L41.44 33.1026L40.4572 33.2871ZM35.7931 34.374L34.8325 34.652L35.0414 35.374H35.7931V34.374ZM27.2638 26.2207L26.5252 25.5466L25.2847 26.9056L27.0999 27.2072L27.2638 26.2207ZM32.2911 23.957V24.957C34.7463 24.957 36.3866 26.3313 37.5248 28.1513C38.6774 29.9943 39.2326 32.1838 39.4743 33.4716L40.4572 33.2871L41.44 33.1026C41.1807 31.7211 40.5681 29.2456 39.2205 27.0908C37.8586 24.9132 35.6664 22.957 32.2911 22.957V23.957ZM40.4572 33.2871L39.4743 33.4713C39.473 33.4645 39.4722 33.4488 39.4776 33.4297C39.4827 33.412 39.4908 33.3988 39.4982 33.3903C39.5132 33.3732 39.5256 33.374 39.5197 33.374V34.374V35.374C40.6831 35.374 41.674 34.3518 41.4401 33.103L40.4572 33.2871ZM39.5197 34.374V33.374H35.7931V34.374V35.374H39.5197V34.374ZM35.7931 34.374L36.7537 34.0961C35.7741 30.7105 33.3425 26.2168 27.4277 25.2342L27.2638 26.2207L27.0999 27.2072C31.9158 28.0072 33.9511 31.6055 34.8325 34.652L35.7931 34.374ZM27.2638 26.2207L28.0024 26.8948C29.0514 25.7455 30.4246 24.9571 32.2912 24.957L32.2911 23.957L32.2911 22.957C29.7683 22.9572 27.8847 24.0571 26.5252 25.5466L27.2638 26.2207Z" fill="#646164"/>
<path d="M17.7086 23.957L17.7087 22.957H17.7086V23.957ZM22.736 26.2207L22.8998 27.2072L24.715 26.9056L23.4746 25.5466L22.736 26.2207ZM14.2067 34.374V35.374H14.9583L15.1673 34.652L14.2067 34.374ZM9.5426 33.2871L8.55977 33.1026L8.5597 33.103L9.5426 33.2871ZM17.7086 23.957L17.7086 24.957C19.5751 24.9571 20.9483 25.7455 21.9974 26.8949L22.736 26.2207L23.4746 25.5466C22.1151 24.0571 20.2315 22.9571 17.7087 22.957L17.7086 23.957ZM22.736 26.2207L22.5721 25.2342C16.6574 26.2168 14.2256 30.7105 13.2461 34.0961L14.2067 34.374L15.1673 34.652C16.0487 31.6056 18.084 28.0072 22.8998 27.2072L22.736 26.2207ZM14.2067 34.374V33.374H10.4801V34.374V35.374H14.2067V34.374ZM10.4801 34.374V33.374C10.4741 33.374 10.4865 33.3732 10.5015 33.3903C10.5089 33.3988 10.5171 33.412 10.5221 33.4297C10.5275 33.4488 10.5268 33.4645 10.5255 33.4712L9.5426 33.2871L8.5597 33.103C8.32578 34.3517 9.31664 35.374 10.4801 35.374V34.374ZM9.5426 33.2871L10.5254 33.4716C10.7672 32.1838 11.3224 29.9943 12.475 28.1513C13.6132 26.3313 15.2535 24.957 17.7086 24.957V23.957V22.957C14.3333 22.957 12.1412 24.9132 10.7793 27.0908C9.4317 29.2456 8.8191 31.7211 8.55977 33.1026L9.5426 33.2871Z" fill="#646164"/>
</svg>
