<svg width="50" height="50" viewBox="0 0 50 50" fill="none" xmlns="http://www.w3.org/2000/svg">
<circle cx="25" cy="18.7493" r="8.33333" fill="#1D2C86"/>
<circle cx="35.4167" cy="18.75" r="6.25" fill="#1D2C86"/>
<circle cx="14.5833" cy="18.75" r="6.25" fill="#1D2C86"/>
<path d="M35.4171 27.082C41.2473 27.0823 43.0821 33.7428 43.5831 36.4121C43.6919 36.9934 43.2361 37.499 42.6447 37.499H36.6007C35.761 34.354 34.1367 30.7871 30.9962 28.749C32.1257 27.7514 33.5707 27.082 35.4171 27.082Z" fill="#1D2C86"/>
<path d="M14.5838 27.082C16.4299 27.0821 17.8743 27.7516 19.0037 28.749C15.8633 30.7871 14.2388 34.354 13.3992 37.499H7.35524C6.76373 37.499 6.30882 36.9934 6.41774 36.4121C6.91882 33.7428 8.75331 27.082 14.5838 27.082Z" fill="#1D2C86"/>
<path d="M25 29.166C33.6152 29.166 35.1051 37.7164 35.3628 40.6738C35.4107 41.224 34.9689 41.666 34.4166 41.666H15.5833C15.031 41.666 14.5893 41.224 14.6372 40.6738C14.8949 37.7164 16.3848 29.166 25 29.166Z" fill="#1D2C86"/>
</svg>
