<svg width="30" height="30" viewBox="0 0 30 30" fill="none" xmlns="http://www.w3.org/2000/svg">
<path d="M18.6358 4.65949C19.2888 4.22412 19.6153 4.00643 19.9711 4.04166C20.3269 4.07689 20.6044 4.35439 21.1594 4.90938L25.0906 8.84062C25.6456 9.39561 25.9231 9.67311 25.9583 10.0289C25.9936 10.3847 25.7759 10.7112 25.3405 11.3642L23.0057 14.8664C22.1307 16.179 21.6931 16.8353 21.3932 17.5593C21.0933 18.2834 20.9386 19.0568 20.6293 20.6037L20.374 21.8798C20.3072 22.214 20.2738 22.3811 20.2192 22.4946C19.9956 22.96 19.4544 23.1786 18.9703 22.9992C18.8522 22.9554 18.7121 22.8584 18.4319 22.6644V22.6644C17.1118 21.7505 16.4518 21.2936 15.8178 20.8105C13.3212 18.9083 11.0917 16.6788 9.18948 14.1822C8.70644 13.5482 8.2495 12.8882 7.33563 11.5681V11.5681C7.14162 11.2879 7.04462 11.1478 7.00085 11.0297C6.82136 10.5456 7.03999 10.0044 7.5054 9.78076C7.6189 9.72622 7.78601 9.6928 8.12023 9.62595L9.39626 9.37075C10.9432 9.06137 11.7166 8.90668 12.4407 8.60676C13.1647 8.30685 13.821 7.86932 15.1336 6.99426L18.6358 4.65949Z" stroke="#353435" stroke-width="2"/>
<path d="M6.25 23.75L11.875 18.125" stroke="#353435" stroke-width="2" stroke-linecap="round"/>
</svg>
