<svg width="50" height="50" viewBox="0 0 50 50" fill="none" xmlns="http://www.w3.org/2000/svg">
<path d="M27.3564 4.16797C28.2167 4.16797 28.6469 4.16821 28.9326 4.42676C29.2183 4.68537 29.2612 5.11363 29.3467 5.96973L29.6631 9.13672C29.8261 10.77 29.9073 11.5873 30.46 11.8164C31.0128 12.0455 31.6482 11.5249 32.9189 10.4854L35.3848 8.46875C36.0501 7.92447 36.3829 7.65276 36.7676 7.67188C37.1523 7.69108 37.4565 7.99463 38.0645 8.60254L41.3975 11.9355C42.0057 12.5438 42.3099 12.8485 42.3291 13.2334C42.3482 13.6181 42.0758 13.9507 41.5312 14.6162L39.5156 17.0801C38.476 18.3506 37.9557 18.9862 38.1846 19.5391C38.4135 20.0919 39.2307 20.1735 40.8643 20.3369L44.0322 20.6543C44.888 20.7399 45.3157 20.7827 45.5742 21.0684C45.8326 21.354 45.833 21.7837 45.833 22.6436V27.3574C45.833 28.2176 45.8327 28.6479 45.5742 28.9336C45.3157 29.2192 44.888 29.2621 44.0322 29.3477L40.8652 29.6641C39.2318 29.8273 38.4148 29.9094 38.1855 30.4619C37.9566 31.0147 38.4759 31.6503 39.5156 32.9209L41.5312 35.3848C42.0758 36.0503 42.3482 36.3828 42.3291 36.7676C42.3099 37.1524 42.0057 37.4571 41.3975 38.0654L38.0654 41.3975C37.4572 42.0057 37.1524 42.3099 36.7676 42.3291C36.3828 42.3482 36.0504 42.0758 35.3848 41.5312L32.9199 39.5156C31.6492 38.476 31.0138 37.9556 30.4609 38.1846C29.9082 38.4136 29.8263 39.2308 29.6631 40.8643L29.3467 44.0332C29.2612 44.8889 29.2183 45.3167 28.9326 45.5752C28.6469 45.8337 28.2166 45.834 27.3564 45.834H22.6426C21.7827 45.834 21.353 45.8336 21.0674 45.5752C20.7817 45.3167 20.7389 44.889 20.6533 44.0332L20.3359 40.8652C20.1725 39.2317 20.0909 38.4145 19.5381 38.1855C18.9853 37.9566 18.3496 38.4769 17.0791 39.5166L14.6152 41.5322C13.9497 42.0768 13.6172 42.3492 13.2324 42.3301C12.8476 42.3109 12.5429 42.0067 11.9346 41.3984L8.60156 38.0654C7.99365 37.4575 7.6901 37.1533 7.6709 36.7686C7.65178 36.3839 7.9235 36.0511 8.46777 35.3857L10.4844 32.9209C11.5238 31.6503 12.0435 31.0147 11.8145 30.4619C11.5854 29.9092 10.7682 29.8273 9.13477 29.6641L5.96777 29.3477C5.11203 29.2621 4.68431 29.2192 4.42578 28.9336C4.16729 28.6479 4.16699 28.2176 4.16699 27.3574V22.6436C4.16699 21.7837 4.16737 21.354 4.42578 21.0684C4.6843 20.7827 5.112 20.7399 5.96777 20.6543L9.13574 20.3369C10.7692 20.1735 11.5865 20.0919 11.8154 19.5391C12.0444 18.9863 11.5248 18.3506 10.4854 17.0801L8.46875 14.6152C7.92419 13.9496 7.6518 13.6172 7.6709 13.2324C7.69009 12.8476 7.99429 12.5428 8.60254 11.9346L11.9346 8.60254C12.5429 7.99425 12.8476 7.69008 13.2324 7.6709C13.6172 7.65182 13.9497 7.92416 14.6152 8.46875L17.0791 10.4844C18.3496 11.524 18.9853 12.0443 19.5381 11.8154C20.0909 11.5865 20.1725 10.7693 20.3359 9.13574L20.6533 5.96875C20.7389 5.11297 20.7817 4.68527 21.0674 4.42676C21.353 4.16835 21.7827 4.16797 22.6426 4.16797H27.3564ZM25 16.668C20.3976 16.668 16.667 20.3986 16.667 25.001C16.667 29.6033 20.3976 33.334 25 33.334C29.6024 33.334 33.333 29.6033 33.333 25.001C33.333 20.3986 29.6024 16.668 25 16.668Z" fill="#1D2C86"/>
</svg>
