<svg width="45" height="45" viewBox="0 0 45 45" fill="none" xmlns="http://www.w3.org/2000/svg">
<path d="M26.0156 4.00879L26.6867 3.26737L26.6866 3.26727L26.0156 4.00879ZM26.4297 5.55078L27.4247 5.45149L27.4247 5.45138L26.4297 5.55078ZM26.6592 7.85059L25.6641 7.94988L25.6641 7.94999L26.6592 7.85059ZM27.457 10.5303L27.0742 11.4541L27.0743 11.4541L27.457 10.5303ZM29.916 9.2002L30.5492 9.9742L30.5493 9.9741L29.916 9.2002ZM31.7061 7.73535L31.0729 6.96135L31.0727 6.96145L31.7061 7.73535ZM33.0889 6.93848L33.1387 5.93972L33.1385 5.93971L33.0889 6.93848ZM34.3857 7.86914L35.0928 7.16203L34.3857 7.86914ZM37.1299 10.6133L37.837 9.90617L37.1299 10.6133ZM38.0615 11.9111L39.0603 11.8616L39.0603 11.8614L38.0615 11.9111ZM37.2637 13.2939L36.4898 12.6606L36.4895 12.6609L37.2637 13.2939ZM35.8008 15.083L36.5747 15.7163L36.5749 15.716L35.8008 15.083ZM34.4697 17.541L33.5457 17.9234L33.5458 17.9236L34.4697 17.541ZM37.1494 18.3389L37.2491 17.3439L37.2491 17.3438L37.1494 18.3389ZM39.4492 18.5693L39.3495 19.5644L39.3496 19.5644L39.4492 18.5693ZM40.9912 18.9844L41.7328 18.3136L41.7327 18.3134L40.9912 18.9844ZM41.25 20.5596H42.25H41.25ZM40.9912 26.0156L41.7326 26.6867L41.7327 26.6866L40.9912 26.0156ZM39.4492 26.4297L39.5485 27.4247L39.5486 27.4247L39.4492 26.4297ZM37.1494 26.6592L37.0501 25.6641L37.05 25.6641L37.1494 26.6592ZM34.4697 27.457L33.5459 27.0742L33.5459 27.0743L34.4697 27.457ZM35.8008 29.916L36.5749 29.283L36.5747 29.2828L35.8008 29.916ZM37.2637 31.7051L36.4895 32.3381L36.4897 32.3383L37.2637 31.7051ZM38.0615 33.0879L39.0603 33.1377L39.0603 33.1375L38.0615 33.0879ZM37.1299 34.3857L36.4228 33.6786L37.1299 34.3857ZM34.3867 37.1289L33.6796 36.4218L34.3867 37.1289ZM33.0889 38.0605L33.1384 39.0593L33.1387 39.0593L33.0889 38.0605ZM31.7061 37.2627L32.3393 36.4888L32.3391 36.4886L31.7061 37.2627ZM29.916 35.7988L29.2828 36.5728L29.283 36.5729L29.916 35.7988ZM27.457 34.4688L27.0743 33.5449L27.0738 33.5451L27.457 34.4688ZM26.6602 37.1484L27.6552 37.2481L27.6552 37.2478L26.6602 37.1484ZM26.4297 39.4492L25.4347 39.3495L25.4346 39.3498L26.4297 39.4492ZM26.0156 40.9912L26.6866 41.7327L26.6867 41.7326L26.0156 40.9912ZM20.5596 41.25V42.25V41.25ZM18.9844 40.9912L18.3134 41.7327L18.3136 41.7328L18.9844 40.9912ZM18.5693 39.4492L19.5644 39.3496L19.5644 39.3495L18.5693 39.4492ZM18.3389 37.1494L17.3438 37.2491L17.3439 37.2491L18.3389 37.1494ZM17.541 34.4697L17.9236 33.5458L17.9234 33.5457L17.541 34.4697ZM15.083 35.8008L15.716 36.5749L15.7163 36.5747L15.083 35.8008ZM13.2939 37.2637L12.6609 36.4895L12.6606 36.4898L13.2939 37.2637ZM11.9111 38.0615L11.8614 39.0603L11.8616 39.0603L11.9111 38.0615ZM7.86914 34.3857L7.16203 35.0928L7.86914 34.3857ZM6.93848 33.0889L5.93971 33.1385L5.93972 33.1387L6.93848 33.0889ZM7.73535 31.7061L6.96145 31.0727L6.96135 31.0729L7.73535 31.7061ZM9.2002 29.916L9.9741 30.5493L9.9742 30.5492L9.2002 29.916ZM10.5303 27.457L11.4541 27.0743L11.4541 27.0742L10.5303 27.457ZM7.85059 26.6592L7.94999 25.6641L7.94988 25.6641L7.85059 26.6592ZM5.55078 26.4297L5.45138 27.4247L5.45149 27.4247L5.55078 26.4297ZM4.00879 26.0156L3.26727 26.6866L3.26737 26.6867L4.00879 26.0156ZM3.75 20.5596H2.75H3.75ZM4.00879 18.9844L3.26733 18.3134L3.26721 18.3135L4.00879 18.9844ZM5.55078 18.5703L5.65031 19.5653L5.65045 19.5653L5.55078 18.5703ZM7.85156 18.3398L7.75203 17.3448L7.75189 17.3448L7.85156 18.3398ZM10.5303 17.542L11.4541 17.9247L11.4541 17.9247L10.5303 17.542ZM9.2002 15.083L9.9742 14.4498L9.9741 14.4497L9.2002 15.083ZM7.73535 13.293L6.96135 13.9262L6.96145 13.9263L7.73535 13.293ZM6.93848 11.9102L5.93972 11.8603L5.93971 11.8605L6.93848 11.9102ZM7.86914 10.6133L7.16203 9.90617L7.86914 10.6133ZM11.9111 6.9375L11.8616 5.93873L11.8613 5.93874L11.9111 6.9375ZM13.2939 7.73535L12.6607 8.5093L12.6609 8.5095L13.2939 7.73535ZM15.083 9.19824L15.7163 8.42429L15.716 8.4241L15.083 9.19824ZM17.542 10.5293L17.9246 11.4532L17.9247 11.4532L17.542 10.5293ZM18.3398 7.84961L17.3448 7.74985L17.3448 7.75007L18.3398 7.84961ZM18.5703 5.55078L19.5653 5.65054L19.5653 5.65032L18.5703 5.55078ZM18.9844 4.00879L18.3135 3.26721L18.3134 3.26732L18.9844 4.00879ZM20.5596 3.75V2.75V3.75ZM22.5 15V14V15ZM15 22.5H14H15ZM22.5 30V31V30ZM30 22.5H31H30ZM24.4395 3.75V4.75C24.8961 4.75 25.1429 4.75201 25.3149 4.77422C25.4587 4.79279 25.4113 4.81059 25.3447 4.75031L26.0156 4.00879L26.6866 3.26727C26.3342 2.94848 25.9289 2.83689 25.571 2.79069C25.2414 2.74813 24.843 2.75 24.4395 2.75V3.75ZM26.0156 4.00879L25.3446 4.75021C25.278 4.68992 25.2909 4.6409 25.3236 4.78184C25.3628 4.95063 25.3892 5.19582 25.4346 5.65019L26.4297 5.55078L27.4247 5.45138C27.3846 5.05001 27.3469 4.65347 27.2718 4.32983C27.1903 3.97835 27.0389 3.5862 26.6867 3.26737L26.0156 4.00879ZM26.4297 5.55078L25.4346 5.65008L25.6641 7.94988L26.6592 7.85059L27.6542 7.75129L27.4247 5.45149L26.4297 5.55078ZM26.6592 7.85059L25.6641 7.94999C25.7424 8.73306 25.8099 9.43503 25.9423 9.96109C26.0749 10.4884 26.3476 11.153 27.0742 11.4541L27.457 10.5303L27.8399 9.60647C28.0137 9.67851 27.9691 9.81994 27.8818 9.4731C27.7942 9.12497 27.7392 8.60163 27.6542 7.75118L26.6592 7.85059ZM27.457 10.5303L27.0743 11.4541C27.8009 11.7552 28.4637 11.4782 28.9304 11.1992C29.396 10.9209 29.9402 10.4724 30.5492 9.9742L29.916 9.2002L29.2828 8.42619C28.6213 8.96733 28.2124 9.29837 27.9043 9.48253C27.5974 9.66599 27.6659 9.53439 27.8398 9.60643L27.457 10.5303ZM29.916 9.2002L30.5493 9.9741L32.3394 8.50925L31.7061 7.73535L31.0727 6.96145L29.2827 8.42629L29.916 9.2002ZM31.7061 7.73535L32.3392 8.50935C32.6924 8.22046 32.8845 8.06597 33.0314 7.97446C33.1541 7.89805 33.1287 7.94169 33.0392 7.93724L33.0889 6.93848L33.1385 5.93971C32.6644 5.91615 32.2803 6.08609 31.974 6.27682C31.692 6.45246 31.3851 6.70596 31.0729 6.96135L31.7061 7.73535ZM33.0889 6.93848L33.039 7.93723C32.9495 7.93277 32.9286 7.8868 33.0431 7.97505C33.1802 8.08073 33.356 8.2536 33.6786 8.57625L34.3857 7.86914L35.0928 7.16203C34.8076 6.87678 34.5273 6.59391 34.2641 6.39104C33.9783 6.17074 33.6129 5.96339 33.1387 5.93972L33.0889 6.93848ZM34.3857 7.86914L33.6786 8.57625L36.4228 11.3204L37.1299 10.6133L37.837 9.90617L35.0928 7.16203L34.3857 7.86914ZM37.1299 10.6133L36.4228 11.3204C36.7457 11.6433 36.9188 11.8193 37.0247 11.9567C37.1133 12.0716 37.0672 12.0507 37.0628 11.9609L38.0615 11.9111L39.0603 11.8614C39.0366 11.3867 38.8289 11.0211 38.6085 10.7353C38.4055 10.4721 38.1224 10.1916 37.837 9.90617L37.1299 10.6133ZM38.0615 11.9111L37.0627 11.9606C37.0583 11.8707 37.1022 11.8451 37.0255 11.9679C36.9337 12.1151 36.779 12.3071 36.4898 12.6606L37.2637 13.2939L38.0376 13.9273C38.2929 13.6153 38.5466 13.3083 38.7224 13.0266C38.9133 12.7206 39.0838 12.3363 39.0603 11.8616L38.0615 11.9111ZM37.2637 13.2939L36.4895 12.6609L35.0266 14.45L35.8008 15.083L36.5749 15.716L38.0378 13.927L37.2637 13.2939ZM35.8008 15.083L35.0269 14.4497C34.5287 15.0584 34.08 15.6023 33.8016 16.0675C33.5225 16.5338 33.2449 17.1965 33.5457 17.9234L34.4697 17.541L35.3937 17.1586C35.4658 17.3328 35.334 17.4016 35.5177 17.0947C35.7021 16.7866 36.0333 16.3779 36.5747 15.7163L35.8008 15.083ZM34.4697 17.541L33.5458 17.9236C33.8469 18.6507 34.5119 18.9232 35.039 19.0557C35.565 19.188 36.267 19.2555 37.0498 19.3339L37.1494 18.3389L37.2491 17.3438C36.3984 17.2587 35.8751 17.2037 35.5267 17.1161C35.1796 17.0288 35.3215 16.9842 35.3937 17.1584L34.4697 17.541ZM37.1494 18.3389L37.0497 19.3339L39.3495 19.5644L39.4492 18.5693L39.5489 17.5743L37.2491 17.3439L37.1494 18.3389ZM39.4492 18.5693L39.3496 19.5644C39.8036 19.6098 40.0488 19.6365 40.2174 19.6758C40.3582 19.7086 40.3097 19.7216 40.2497 19.6553L40.9912 18.9844L41.7327 18.3134C41.4143 17.9615 41.0226 17.8098 40.671 17.7279C40.3472 17.6525 39.9507 17.6146 39.5489 17.5743L39.4492 18.5693ZM40.9912 18.9844L40.2496 19.6552C40.1895 19.5888 40.2072 19.5415 40.2258 19.6849C40.248 19.8566 40.25 20.1031 40.25 20.5596H41.25H42.25C42.25 20.1561 42.2518 19.7579 42.2092 19.4284C42.163 19.0706 42.0513 18.6657 41.7328 18.3136L40.9912 18.9844ZM41.25 20.5596H40.25V24.4395H41.25H42.25V20.5596H41.25ZM41.25 24.4395H40.25C40.25 24.8961 40.248 25.1429 40.2258 25.3149C40.2072 25.4587 40.1894 25.4113 40.2497 25.3447L40.9912 26.0156L41.7327 26.6866C42.0515 26.3342 42.1631 25.9289 42.2093 25.571C42.2519 25.2414 42.25 24.843 42.25 24.4395H41.25ZM40.9912 26.0156L40.2498 25.3446C40.3101 25.278 40.3591 25.2909 40.2182 25.3236C40.0494 25.3628 39.8042 25.3892 39.3498 25.4346L39.4492 26.4297L39.5486 27.4247C39.95 27.3846 40.3465 27.3469 40.6702 27.2718C41.0217 27.1903 41.4138 27.0389 41.7326 26.6867L40.9912 26.0156ZM39.4492 26.4297L39.3499 25.4346L37.0501 25.6641L37.1494 26.6592L37.2487 27.6542L39.5485 27.4247L39.4492 26.4297ZM37.1494 26.6592L37.05 25.6641C36.267 25.7424 35.565 25.8099 35.0389 25.9422C34.5116 26.0749 33.847 26.3476 33.5459 27.0742L34.4697 27.457L35.3936 27.8398C35.3215 28.0137 35.18 27.9691 35.5269 27.8818C35.875 27.7942 36.3984 27.7392 37.2488 27.6542L37.1494 26.6592ZM34.4697 27.457L33.5459 27.0743C33.2447 27.8013 33.5223 28.4643 33.8014 28.9308C34.0798 29.3962 34.5286 29.9403 35.0268 30.5493L35.8008 29.916L36.5747 29.2828C36.0333 28.6211 35.702 28.2121 35.5176 27.9039C35.3339 27.5968 35.4658 27.6656 35.3936 27.8398L34.4697 27.457ZM35.8008 29.916L35.0266 30.549L36.4895 32.3381L37.2637 31.7051L38.0378 31.0721L36.5749 29.283L35.8008 29.916ZM37.2637 31.7051L36.4897 32.3383C36.779 32.6919 36.9337 32.884 37.0256 33.0311C37.1022 33.154 37.0583 33.1283 37.0628 33.0383L38.0615 33.0879L39.0603 33.1375C39.0839 32.6627 38.9133 32.2784 38.7224 31.9725C38.5466 31.6908 38.2929 31.3838 38.0376 31.0718L37.2637 31.7051ZM38.0615 33.0879L37.0628 33.0381C37.0672 32.9483 37.1133 32.9274 37.0247 33.0424C36.9188 33.1797 36.7456 33.3558 36.4228 33.6786L37.1299 34.3857L37.837 35.0928C38.1224 34.8074 38.4055 34.527 38.6085 34.2637C38.8288 33.978 39.0366 33.6123 39.0603 33.1377L38.0615 33.0879ZM37.1299 34.3857L36.4228 33.6786L33.6796 36.4218L34.3867 37.1289L35.0938 37.836L37.837 35.0928L37.1299 34.3857ZM34.3867 37.1289L33.6796 36.4218C33.3568 36.7447 33.1807 36.9178 33.0433 37.0237C32.9284 37.1124 32.9493 37.0663 33.0391 37.0618L33.0889 38.0605L33.1387 39.0593C33.6133 39.0356 33.9789 38.8279 34.2647 38.6075C34.5279 38.4045 34.8084 38.1214 35.0938 37.836L34.3867 37.1289ZM33.0889 38.0605L33.0393 37.0618C33.1293 37.0573 33.155 37.1013 33.0321 37.0246C32.8849 36.9328 32.6929 36.7781 32.3393 36.4888L31.7061 37.2627L31.0728 38.0366C31.3848 38.2919 31.6918 38.5457 31.9734 38.7214C32.2794 38.9123 32.6637 39.0829 33.1384 39.0593L33.0889 38.0605ZM31.7061 37.2627L32.3391 36.4886L30.5491 35.0247L29.916 35.7988L29.283 36.5729L31.073 38.0368L31.7061 37.2627ZM29.916 35.7988L30.5493 35.0249C29.9401 34.5265 29.396 34.078 28.9304 33.7997C28.4635 33.5206 27.8008 33.2439 27.0743 33.5449L27.457 34.4688L27.8398 35.3926C27.6661 35.4646 27.5976 35.3331 27.9043 35.5164C28.2123 35.7005 28.6213 36.0315 29.2828 36.5728L29.916 35.7988ZM27.457 34.4688L27.0738 33.5451C26.3473 33.8466 26.0751 34.5114 25.9427 35.0385C25.8106 35.5643 25.7433 36.2662 25.6651 37.0491L26.6602 37.1484L27.6552 37.2478C27.7402 36.3972 27.795 35.8739 27.8825 35.5256C27.9696 35.1785 28.0143 35.3202 27.8403 35.3924L27.457 34.4688ZM26.6602 37.1484L25.6651 37.0488L25.4347 39.3495L26.4297 39.4492L27.4247 39.5489L27.6552 37.2481L26.6602 37.1484ZM26.4297 39.4492L25.4346 39.3498C25.3893 39.8042 25.3628 40.0494 25.3236 40.2181C25.2909 40.3591 25.278 40.3101 25.3446 40.2498L26.0156 40.9912L26.6867 41.7326C27.0389 41.4138 27.1903 41.0217 27.2718 40.6702C27.3469 40.3465 27.3846 39.95 27.4247 39.5486L26.4297 39.4492ZM26.0156 40.9912L25.3447 40.2497C25.4113 40.1894 25.4587 40.2072 25.3149 40.2258C25.1429 40.248 24.8961 40.25 24.4395 40.25V41.25V42.25C24.843 42.25 25.2414 42.2519 25.571 42.2093C25.9289 42.1631 26.3342 42.0515 26.6866 41.7327L26.0156 40.9912ZM24.4395 41.25V40.25H20.5596V41.25V42.25H24.4395V41.25ZM20.5596 41.25V40.25C20.1031 40.25 19.8566 40.248 19.6849 40.2258C19.5415 40.2072 19.5888 40.1895 19.6552 40.2496L18.9844 40.9912L18.3136 41.7328C18.6657 42.0513 19.0706 42.163 19.4284 42.2092C19.7579 42.2518 20.1561 42.25 20.5596 42.25V41.25ZM18.9844 40.9912L19.6553 40.2497C19.7216 40.3097 19.7086 40.3582 19.6758 40.2174C19.6365 40.0488 19.6098 39.8036 19.5644 39.3496L18.5693 39.4492L17.5743 39.5489C17.6146 39.9507 17.6525 40.3472 17.7279 40.671C17.8098 41.0226 17.9615 41.4143 18.3134 41.7327L18.9844 40.9912ZM18.5693 39.4492L19.5644 39.3495L19.3339 37.0497L18.3389 37.1494L17.3439 37.2491L17.5743 39.5489L18.5693 39.4492ZM18.3389 37.1494L19.3339 37.0498C19.2555 36.267 19.188 35.565 19.0557 35.039C18.9232 34.5119 18.6507 33.8469 17.9236 33.5458L17.541 34.4697L17.1584 35.3937C16.9842 35.3215 17.0288 35.1796 17.1161 35.5267C17.2037 35.8751 17.2587 36.3984 17.3438 37.2491L18.3389 37.1494ZM17.541 34.4697L17.9234 33.5457C17.1965 33.2449 16.5338 33.5225 16.0675 33.8016C15.6023 34.08 15.0584 34.5287 14.4497 35.0269L15.083 35.8008L15.7163 36.5747C16.3779 36.0333 16.7866 35.7021 17.0947 35.5177C17.4016 35.334 17.3328 35.4658 17.1586 35.3937L17.541 34.4697ZM15.083 35.8008L14.45 35.0266L12.6609 36.4895L13.2939 37.2637L13.927 38.0378L15.716 36.5749L15.083 35.8008ZM13.2939 37.2637L12.6606 36.4898C12.3071 36.779 12.1151 36.9337 11.9679 37.0255C11.8451 37.1022 11.8707 37.0583 11.9606 37.0627L11.9111 38.0615L11.8616 39.0603C12.3363 39.0838 12.7206 38.9133 13.0266 38.7224C13.3083 38.5466 13.6153 38.2929 13.9273 38.0376L13.2939 37.2637ZM11.9111 38.0615L11.9609 37.0628C12.0507 37.0672 12.0716 37.1133 11.9567 37.0247C11.8193 36.9188 11.6433 36.7457 11.3204 36.4228L10.6133 37.1299L9.90617 37.837C10.1916 38.1224 10.4721 38.4055 10.7353 38.6085C11.0211 38.8289 11.3867 39.0366 11.8614 39.0603L11.9111 38.0615ZM10.6133 37.1299L11.3204 36.4228L8.57625 33.6786L7.86914 34.3857L7.16203 35.0928L9.90617 37.837L10.6133 37.1299ZM7.86914 34.3857L8.57625 33.6786C8.2536 33.356 8.08073 33.1802 7.97505 33.0431C7.8868 32.9286 7.93277 32.9495 7.93723 33.039L6.93848 33.0889L5.93972 33.1387C5.96339 33.6129 6.17074 33.9783 6.39104 34.2641C6.59391 34.5273 6.87678 34.8076 7.16203 35.0928L7.86914 34.3857ZM6.93848 33.0889L7.93724 33.0392C7.94169 33.1287 7.89805 33.1541 7.97446 33.0314C8.06597 32.8845 8.22046 32.6924 8.50935 32.3392L7.73535 31.7061L6.96135 31.0729C6.70596 31.3851 6.45246 31.692 6.27682 31.974C6.08609 32.2803 5.91615 32.6644 5.93971 33.1385L6.93848 33.0889ZM7.73535 31.7061L8.50925 32.3394L9.9741 30.5493L9.2002 29.916L8.42629 29.2827L6.96145 31.0727L7.73535 31.7061ZM9.2002 29.916L9.9742 30.5492C10.4724 29.9402 10.9209 29.396 11.1992 28.9304C11.4782 28.4637 11.7552 27.8009 11.4541 27.0743L10.5303 27.457L9.60643 27.8398C9.53439 27.6659 9.66599 27.5974 9.48253 27.9043C9.29837 28.2124 8.96733 28.6213 8.42619 29.2828L9.2002 29.916ZM10.5303 27.457L11.4541 27.0742C11.153 26.3476 10.4884 26.0749 9.96109 25.9423C9.43503 25.8099 8.73306 25.7424 7.94999 25.6641L7.85059 26.6592L7.75118 27.6542C8.60163 27.7392 9.12497 27.7942 9.4731 27.8818C9.81994 27.9691 9.67851 28.0137 9.60647 27.8399L10.5303 27.457ZM7.85059 26.6592L7.94988 25.6641L5.65008 25.4346L5.55078 26.4297L5.45149 27.4247L7.75129 27.6542L7.85059 26.6592ZM5.55078 26.4297L5.65019 25.4346C5.19582 25.3892 4.95063 25.3628 4.78184 25.3236C4.6409 25.2909 4.68992 25.278 4.75021 25.3446L4.00879 26.0156L3.26737 26.6867C3.5862 27.0389 3.97835 27.1903 4.32983 27.2718C4.65347 27.3469 5.05001 27.3846 5.45138 27.4247L5.55078 26.4297ZM4.00879 26.0156L4.75031 25.3447C4.81059 25.4113 4.79279 25.4587 4.77422 25.3149C4.75201 25.1429 4.75 24.8961 4.75 24.4395H3.75H2.75C2.75 24.843 2.74813 25.2414 2.79069 25.571C2.83689 25.9289 2.94848 26.3342 3.26727 26.6866L4.00879 26.0156ZM3.75 24.4395H4.75V20.5596H3.75H2.75V24.4395H3.75ZM3.75 20.5596H4.75C4.75 20.1031 4.75204 19.8566 4.77424 19.6848C4.79277 19.5415 4.8105 19.5888 4.75037 19.6552L4.00879 18.9844L3.26721 18.3135C2.94867 18.6656 2.837 19.0706 2.79074 19.4285C2.74815 19.7579 2.75 20.1562 2.75 20.5596H3.75ZM4.00879 18.9844L4.75025 19.6554C4.68989 19.7221 4.64077 19.7092 4.78176 19.6765C4.95063 19.6373 5.19582 19.6108 5.65031 19.5653L5.55078 18.5703L5.45125 17.5753C5.04997 17.6154 4.65343 17.6531 4.32987 17.7282C3.97843 17.8097 3.58621 17.961 3.26733 18.3134L4.00879 18.9844ZM5.55078 18.5703L5.65045 19.5653L7.95123 19.3349L7.85156 18.3398L7.75189 17.3448L5.45111 17.5753L5.55078 18.5703ZM7.85156 18.3398L7.95109 19.3349C8.73386 19.2566 9.43564 19.189 9.96151 19.0567C10.4888 18.924 11.1531 18.6513 11.4541 17.9247L10.5303 17.542L9.60641 17.1593C9.67843 16.9854 9.81997 17.03 9.47341 17.1172C9.12543 17.2047 8.60235 17.2598 7.75203 17.3448L7.85156 18.3398ZM10.5303 17.542L11.4541 17.9247C11.7551 17.1981 11.4782 16.5354 11.1992 16.0686C10.9209 15.603 10.4724 15.0589 9.9742 14.4498L9.2002 15.083L8.42619 15.7162C8.96734 16.3777 9.29837 16.7866 9.48252 17.0947C9.66596 17.4016 9.5344 17.3331 9.6064 17.1593L10.5303 17.542ZM9.2002 15.083L9.9741 14.4497L8.50925 12.6597L7.73535 13.293L6.96145 13.9263L8.42629 15.7163L9.2002 15.083ZM7.73535 13.293L8.50935 12.6598C8.22046 12.3066 8.06597 12.1146 7.97446 11.9676C7.89805 11.8449 7.94169 11.8703 7.93724 11.9598L6.93848 11.9102L5.93971 11.8605C5.91615 12.3347 6.08609 12.7188 6.27682 13.025C6.45246 13.307 6.70596 13.614 6.96135 13.9262L7.73535 13.293ZM6.93848 11.9102L7.93723 11.96C7.93277 12.0495 7.8868 12.0704 7.97505 11.9559C8.08073 11.8188 8.2536 11.643 8.57625 11.3204L7.86914 10.6133L7.16203 9.90617C6.87678 10.1914 6.59391 10.4717 6.39104 10.7349C6.17074 11.0207 5.96339 11.3861 5.93972 11.8603L6.93848 11.9102ZM7.86914 10.6133L8.57625 11.3204L11.3204 8.57625L10.6133 7.86914L9.90617 7.16203L7.16203 9.90617L7.86914 10.6133ZM10.6133 7.86914L11.3204 8.57625C11.6432 8.2534 11.8193 8.08025 11.9566 7.97431C12.0716 7.88569 12.0507 7.93178 11.9609 7.93626L11.9111 6.9375L11.8613 5.93874C11.3867 5.96241 11.0211 6.17019 10.7353 6.39053C10.4721 6.59355 10.1916 6.87662 9.90617 7.16203L10.6133 7.86914ZM11.9111 6.9375L11.9607 7.93627C11.8707 7.94074 11.845 7.89679 11.9679 7.97346C12.1151 8.06529 12.3071 8.21999 12.6607 8.5093L13.2939 7.73535L13.9272 6.9614C13.6152 6.70614 13.3082 6.45238 13.0266 6.27664C12.7206 6.08576 12.3363 5.91517 11.8616 5.93873L11.9111 6.9375ZM13.2939 7.73535L12.6609 8.5095L14.45 9.97239L15.083 9.19824L15.716 8.4241L13.927 6.96121L13.2939 7.73535ZM15.083 9.19824L14.4498 9.97219C15.0587 10.4704 15.6028 10.9191 16.0682 11.1976C16.5347 11.4767 17.1976 11.7543 17.9246 11.4532L17.542 10.5293L17.1594 9.60539C17.3336 9.53325 17.4023 9.66512 17.0951 9.48131C16.7868 9.29689 16.3779 8.96561 15.7163 8.42429L15.083 9.19824ZM17.542 10.5293L17.9247 11.4532C18.6515 11.1521 18.9241 10.4873 19.0567 9.96005C19.189 9.43407 19.2566 8.73207 19.3349 7.94915L18.3398 7.84961L17.3448 7.75007C17.2597 8.60064 17.2047 9.12399 17.1171 9.47224C17.0299 9.81924 16.9853 9.67751 17.1593 9.60541L17.542 10.5293ZM18.3398 7.84961L19.3349 7.94936L19.5653 5.65054L18.5703 5.55078L17.5753 5.45103L17.3448 7.74985L18.3398 7.84961ZM18.5703 5.55078L19.5653 5.65032C19.6108 5.19582 19.6373 4.95063 19.6765 4.78175C19.7092 4.64076 19.7221 4.68989 19.6554 4.75025L18.9844 4.00879L18.3134 3.26732C17.961 3.58621 17.8097 3.97844 17.7282 4.32987C17.6531 4.65342 17.6154 5.04997 17.5753 5.45124L18.5703 5.55078ZM18.9844 4.00879L19.6552 4.75037C19.5888 4.8105 19.5415 4.79277 19.6849 4.77424C19.8566 4.75204 20.1031 4.75 20.5596 4.75V3.75V2.75C20.1562 2.75 19.7579 2.74815 19.4284 2.79074C19.0706 2.837 18.6656 2.94867 18.3135 3.26721L18.9844 4.00879ZM20.5596 3.75V4.75H24.4395V3.75V2.75H20.5596V3.75ZM22.5 15V14C17.8056 14 14 17.8056 14 22.5H15H16C16 18.9101 18.9101 16 22.5 16V15ZM15 22.5H14C14 27.1944 17.8056 31 22.5 31V30V29C18.9101 29 16 26.0899 16 22.5H15ZM22.5 30V31C27.1944 31 31 27.1944 31 22.5H30H29C29 26.0898 26.0898 29 22.5 29V30ZM30 22.5H31C31 17.8056 27.1944 14 22.5 14V15V16C26.0899 16 29 18.9101 29 22.5H30Z" fill="#646164"/>
</svg>
