<svg width="34" height="37" viewBox="0 0 34 37" fill="none" xmlns="http://www.w3.org/2000/svg">
<path d="M19.083 0.332031C24.9346 0.332031 27.8611 0.332136 29.9629 1.73633C30.8728 2.34432 31.6547 3.12621 32.2627 4.03613C33.6669 6.13797 33.667 9.06441 33.667 14.916C33.667 20.7677 33.6671 23.6941 32.2627 25.7959C31.6547 26.7058 30.8728 27.4868 29.9629 28.0947C28.1268 29.3215 25.6618 29.4755 21.167 29.4951V29.499L17.8945 36.0439C17.5259 36.7806 16.4741 36.7806 16.1055 36.0439L12.833 29.499V29.4951C8.33816 29.4755 5.87319 29.3215 4.03711 28.0947C3.12723 27.4868 2.34528 26.7058 1.7373 25.7959C0.332911 23.6941 0.333008 20.7677 0.333008 14.916C0.333008 9.06441 0.333113 6.13797 1.7373 4.03613C2.34529 3.12621 3.12719 2.34432 4.03711 1.73633C6.13895 0.332137 9.06538 0.332031 14.917 0.332031H19.083ZM8.66699 12.832C7.5164 12.832 6.58301 13.7654 6.58301 14.916C6.58318 16.0665 7.51651 16.999 8.66699 16.999C9.81733 16.9988 10.7498 16.0664 10.75 14.916C10.75 13.7655 9.81744 12.8322 8.66699 12.832ZM17 12.832C15.8494 12.832 14.917 13.7654 14.917 14.916C14.9172 16.0665 15.8495 16.999 17 16.999C18.1505 16.999 19.0828 16.0665 19.083 14.916C19.083 13.7654 18.1506 12.832 17 12.832ZM25.333 12.832C24.1826 12.8322 23.25 13.7655 23.25 14.916C23.2502 16.0664 24.1827 16.9988 25.333 16.999C26.4835 16.999 27.4168 16.0665 27.417 14.916C27.417 13.7654 26.4836 12.832 25.333 12.832Z" fill="#1D2C86"/>
</svg>
