<svg width="34" height="36" viewBox="0 0 34 36" fill="none" xmlns="http://www.w3.org/2000/svg">
<path d="M19.083 0.332031C24.9346 0.332031 27.8611 0.332136 29.9629 1.73633C30.8728 2.34432 31.6547 3.12621 32.2627 4.03613C33.6669 6.13797 33.667 9.06441 33.667 14.916C33.667 20.7677 33.6671 23.6941 32.2627 25.7959C31.6547 26.7058 30.8728 27.4868 29.9629 28.0947C28.1268 29.3215 25.6618 29.4765 21.167 29.4961V29.499L18.8633 34.1055C18.0955 35.641 15.9045 35.641 15.1367 34.1055L12.833 29.499V29.4961C8.33816 29.4765 5.87319 29.3215 4.03711 28.0947C3.12723 27.4868 2.34528 26.7058 1.7373 25.7959C0.332911 23.6941 0.333008 20.7677 0.333008 14.916C0.333008 9.06441 0.333113 6.13797 1.7373 4.03613C2.34529 3.12621 3.12719 2.34432 4.03711 1.73633C6.13895 0.332137 9.06538 0.332031 14.917 0.332031H19.083ZM10.75 18.082C10.1978 18.082 9.75018 18.5299 9.75 19.082C9.75 19.6343 10.1977 20.082 10.75 20.082H17C17.5523 20.082 18 19.6343 18 19.082C17.9998 18.5299 17.5522 18.082 17 18.082H10.75ZM10.75 9.74902C10.1977 9.74902 9.75 10.1967 9.75 10.749C9.75 11.3013 10.1977 11.749 10.75 11.749H23.25C23.8023 11.749 24.25 11.3013 24.25 10.749C24.25 10.1967 23.8023 9.74902 23.25 9.74902H10.75Z" fill="#1D2C86"/>
</svg>
